<svg width="487" height="191" fill="none" xmlns="http://www.w3.org/2000/svg"><g clip-path="url(#a)"><path d="M24.072 172.145 9 11.301l180 .323-15.937 160.521-73.384 18.554-75.607-18.554Z" fill="#E9CA32"/><path d="M99.68 175.165V26.619l74.124.215-13.218 132.904-60.907 15.427Z" fill="#FFDE25"/><path d="M91.742 44.257H72.145v98.869l-15.241-2.535v-13.31l-18.146-2.535v29.788l52.984 12.041V44.257Zm14.701 0h54.251l-3.629 18.95h-29.912v31.096h29.912l-3.629 62.766-46.993 9.506v-19.647l31.751-9.506 1.833-25.985-33.584 4.246V44.257Z" fill="#fff"/></g><path d="M262.723 59.8h1.056c.704 0 1.184.224 1.44.672.32.384.48.736.48 1.056 0 .256-.032.48-.096.672l-17.184 61.728c-.64 2.112-1.984 3.168-4.032 3.168-1.984 0-3.264-1.056-3.84-3.168l-11.808-42.24-11.808 42.432c-.704 1.984-2.016 2.976-3.936 2.976-1.856 0-3.136-.992-3.84-2.976l-18.144-61.824a3.569 3.569 0 0 1-.096-.864c0-.32.16-.672.48-1.056.256-.384.736-.576 1.44-.576h.96c.768 0 1.376.448 1.824 1.344l17.472 59.328 12.384-44.256c.512-1.792 1.632-2.688 3.36-2.688 1.792 0 2.88.928 3.264 2.784a9328.329 9328.329 0 0 0 6.144 22.08c2.816 9.792 4.896 17.12 6.24 21.984l16.416-59.136c.128-.32.352-.64.672-.96.384-.32.768-.48 1.152-.48Zm11.169 34.848c0-5.056 1.536-8.96 4.608-11.712 3.072-2.752 7.072-4.128 12-4.128s8.896 1.408 11.904 4.224c3.008 2.752 4.512 6.624 4.512 11.616v5.76c0 2.752-1.312 4.128-3.936 4.128h-20.736c-.576 0-1.056-.192-1.44-.576a2.036 2.036 0 0 1-.48-1.344v-.768c0-.512.16-.96.48-1.344.384-.384.864-.576 1.44-.576h20.16v-5.184c0-3.648-1.12-6.432-3.36-8.352-2.24-1.984-5.088-2.976-8.544-2.976-3.456 0-6.336.992-8.64 2.976-2.24 1.92-3.36 4.704-3.36 8.352v16.512c0 3.648 1.12 6.464 3.36 8.448 2.304 1.92 5.152 2.88 8.544 2.88 3.456 0 6.304-.928 8.544-2.784 2.304-1.92 3.456-4.64 3.456-8.16 0-.512.16-.96.48-1.344.384-.384.832-.576 1.344-.576h.768c.576 0 1.024.192 1.344.576.384.384.576.832.576 1.344-.064 4.928-1.6 8.768-4.608 11.52-3.008 2.688-6.944 4.032-11.808 4.032s-8.864-1.376-12-4.128c-3.072-2.816-4.608-6.72-4.608-11.712V94.648Zm47.062 0c0-5.056 1.536-8.96 4.608-11.712 3.072-2.752 7.072-4.128 12-4.128s8.896 1.408 11.904 4.224c3.008 2.752 4.512 6.624 4.512 11.616v5.76c0 2.752-1.312 4.128-3.936 4.128h-20.736c-.576 0-1.056-.192-1.44-.576a2.036 2.036 0 0 1-.48-1.344v-.768c0-.512.16-.96.48-1.344.384-.384.864-.576 1.44-.576h20.16v-5.184c0-3.648-1.12-6.432-3.36-8.352-2.24-1.984-5.088-2.976-8.544-2.976-3.456 0-6.336.992-8.64 2.976-2.24 1.92-3.36 4.704-3.36 8.352v16.512c0 3.648 1.12 6.464 3.36 8.448 2.304 1.92 5.152 2.88 8.544 2.88 3.456 0 6.304-.928 8.544-2.784 2.304-1.92 3.456-4.64 3.456-8.16 0-.512.16-.96.48-1.344.384-.384.832-.576 1.344-.576h.768c.576 0 1.024.192 1.344.576.384.384.576.832.576 1.344-.064 4.928-1.6 8.768-4.608 11.52-3.008 2.688-6.944 4.032-11.808 4.032s-8.864-1.376-12-4.128c-3.072-2.816-4.608-6.72-4.608-11.712V94.648Zm47.831-37.728h.864c1.216 0 1.824.608 1.824 1.824v61.536c1.408-2.176 5.6-9.184 12.576-21.024 6.976-11.84 10.848-18.4 11.616-19.68.256-.384.736-.576 1.44-.576h2.112c.832 0 1.248.32 1.248.96 0 .64-2.368 4.864-7.104 12.672l-5.472 9.024 12.576 23.04c.32.512.48.96.48 1.344 0 .64-.416.96-1.248.96h-2.112c-.512 0-1.024-.32-1.536-.96l-10.848-19.776c-6.656 11.136-10.368 17.216-11.136 18.24-.704 1.024-1.344 1.696-1.92 2.016-.512.32-1.12.48-1.824.48-2.24 0-3.36-1.248-3.36-3.744V58.744c0-1.216.608-1.824 1.824-1.824Zm46.339 0h.768c1.216 0 1.824.608 1.824 1.824v53.472c0 6.848 2.912 10.272 8.736 10.272h1.536c.512 0 .928.192 1.248.576.384.384.576.8.576 1.248v.768c0 1.28-1.152 1.92-3.456 1.92-4.352 0-7.648-1.248-9.888-3.744-2.24-2.496-3.328-6.144-3.264-10.944V58.744c0-1.216.64-1.824 1.92-1.824ZM471.471 79h.864c1.216 0 1.824.64 1.824 1.92v51.264c0 5.504-1.472 9.696-4.416 12.576-2.88 2.88-6.816 4.32-11.808 4.32s-8.864-1.344-11.616-4.032c-2.688-2.624-4.096-6.4-4.224-11.328 0-1.216.608-1.824 1.824-1.824h.864c1.216 0 1.824.608 1.824 1.824.128 3.52 1.248 6.208 3.36 8.064 2.176 1.856 4.928 2.784 8.256 2.784 7.616 0 11.424-4.096 11.424-12.288V80.92c0-1.28.608-1.92 1.824-1.92Zm-28.416-.192h.768c1.28 0 1.92.64 1.92 1.92v30.336c0 3.776.928 6.624 2.784 8.544 1.92 1.92 4.608 2.88 8.064 2.88 3.456 0 6.432-1.376 8.928-4.128.576-.704 1.184-1.056 1.824-1.056 1.216 0 1.824.704 1.824 2.112 0 .576-.16 1.088-.48 1.536-1.28 1.792-3.072 3.264-5.376 4.416a16.88 16.88 0 0 1-7.296 1.632c-4.416 0-8-1.376-10.752-4.128-2.688-2.816-4.032-6.72-4.032-11.712V80.728c0-1.28.608-1.92 1.824-1.92Z" fill="#000"/><defs><clipPath id="a"><path fill="#fff" transform="translate(9 11)" d="M0 0h180v180H0z"/></clipPath></defs></svg>
